<?xml version="1.0" encoding="iso-8859-1"?>
<!-- Generator: Adobe Illustrator 19.0.0, SVG Export Plug-In . SVG Version: 6.00 Build 0)  -->
<svg fill = "gray" version="1.1" id="Layer_1" xmlns="http://www.w3.org/2000/svg" xmlns:xlink="http://www.w3.org/1999/xlink" x="0px" y="0px"
	 viewBox="0 0 510.854 510.854" style="enable-background:new 0 0 510.854 510.854;" xml:space="preserve">
<g>
	<g>
		<g>
			<path d="M271.483,474.154c5.522,0,10-4.478,10-10v-127.3c0-5.522-4.478-10-10-10c-5.522,0-10,4.478-10,10v127.301
				C261.483,469.677,265.96,474.154,271.483,474.154z"/>
			<path d="M271.483,300.979c5.522,0,10-4.478,10-10V257.72c0-5.522-4.478-10-10-10c-5.522,0-10,4.478-10,10v33.259
				C261.483,296.502,265.96,300.979,271.483,300.979z"/>
			<path d="M317.357,42.434h-19.496c-5.522,0-10,4.478-10,10c0,5.522,4.478,10,10,10h19.496c5.522,0,10-4.478,10-10
				C327.357,46.911,322.879,42.434,317.357,42.434z"/>
			<path d="M340.294,0H170.56c-18.162,0-32.937,14.775-32.937,32.938v71.104c0,2.741,1.125,5.362,3.112,7.25l43.814,41.624
				l10.416,39.582v83.894h-24.289c-5.523,0-10,4.478-10,10v77.986c0,5.522,4.477,10,10,10h24.289v95.976
				c0,22.332,18.168,40.5,40.5,40.5h70.423c5.522,0,10-4.478,10-10V192.497l10.416-39.581l43.814-41.624
				c1.987-1.888,3.112-4.509,3.112-7.25V32.938C373.231,14.775,358.455,0,340.294,0z M194.276,354.378h-13.599v-57.986h13.599
				V354.378z M295.889,490.854h-60.423c-11.304,0-20.5-9.196-20.5-20.5v-269.15h80.923V490.854z M298.18,181.203h-85.505
				l-6.206-23.58h97.916L298.18,181.203z M313.364,137.623H197.489l-39.867-37.874V62.434h94.364c5.522,0,10-4.478,10-10
				c0-5.522-4.478-10-10-10h-94.364v-9.496c0-7.134,5.804-12.938,12.937-12.938h169.734c7.133,0,12.937,5.804,12.937,12.938v19.496
				v47.315h0.001L313.364,137.623z"/>
		</g>
	</g>
</g>
<g>
</g>
<g>
</g>
<g>
</g>
<g>
</g>
<g>
</g>
<g>
</g>
<g>
</g>
<g>
</g>
<g>
</g>
<g>
</g>
<g>
</g>
<g>
</g>
<g>
</g>
<g>
</g>
<g>
</g>
</svg>
